<?xml version="1.0" standalone="no"?>
<!DOCTYPE svg PUBLIC "-//W3C//DTD SVG 20010904//EN"
 "http://www.w3.org/TR/2001/REC-SVG-20010904/DTD/svg10.dtd">
<svg version="1.0" xmlns="http://www.w3.org/2000/svg"
 width="201.000000pt" height="251.000000pt" viewBox="0 0 201.000000 251.000000"
 preserveAspectRatio="xMidYMid meet">

<g transform="translate(0.000000,251.000000) scale(0.100000,-0.100000)"
fill="#000000" stroke="none">
<path d="M430 2424 c-96 -87 -174 -349 -182 -614 -3 -90 -2 -95 17 -92 68 12
86 37 110 157 39 189 95 309 162 348 41 23 63 13 98 -47 32 -55 60 -80 80 -72
11 4 14 13 9 33 -13 54 -106 223 -151 273 -57 63 -85 66 -143 14z"/>
<path d="M539 1973 c-116 -98 -78 -343 53 -343 39 0 88 38 108 83 38 82 22
183 -39 247 -46 48 -76 51 -122 13z"/>
<path d="M945 1713 c-33 -20 -111 -62 -173 -93 l-113 -57 40 -7 c51 -8 53 -24
10 -92 -44 -68 -118 -164 -128 -164 -9 0 -41 75 -61 145 -7 22 -21 61 -32 86
-18 43 -25 49 -86 74 -37 16 -102 46 -144 67 -43 21 -83 38 -89 38 -6 0 17
-30 51 -67 193 -210 255 -356 319 -753 32 -197 39 -247 52 -365 14 -130 27
-176 28 -97 2 127 58 559 92 707 33 145 39 170 55 210 19 49 148 261 209 344
25 34 42 61 37 61 -4 -1 -34 -17 -67 -37z"/>
<path d="M274 1458 c-16 -12 -32 -27 -36 -33 -18 -24 3 -347 36 -586 44 -311
135 -614 221 -734 68 -97 133 -111 197 -45 58 62 94 155 133 346 30 152 31
165 1 94 -72 -172 -117 -220 -190 -199 -146 42 -261 412 -296 949 -15 238 -18
245 -66 208z"/>
<path d="M800 1329 c0 -11 5 -17 10 -14 6 3 10 13 10 21 0 8 -4 14 -10 14 -5
0 -10 -9 -10 -21z"/>
<path d="M833 1294 c2 -47 5 -54 22 -54 18 0 20 7 20 54 0 49 -2 54 -22 54
-21 0 -22 -5 -20 -54z"/>
<path d="M902 1304 c-2 -28 2 -43 8 -39 5 3 10 -1 10 -9 0 -9 4 -16 9 -16 5 0
5 20 0 46 -5 25 -6 50 -3 55 3 5 -1 9 -9 9 -9 0 -14 -14 -15 -46z"/>
<path d="M953 1338 c2 -7 10 -12 16 -10 6 1 11 -5 11 -14 0 -8 -4 -12 -10 -9
-5 3 -10 -3 -10 -15 0 -12 4 -19 9 -15 5 3 12 -5 14 -17 3 -13 4 2 3 32 -1 45
-4 55 -20 58 -12 3 -17 -1 -13 -10z"/>
<path d="M1016 1313 c9 -52 14 -54 14 -5 0 23 -5 42 -10 42 -7 0 -8 -14 -4
-37z"/>
<path d="M1055 1338 c-4 -10 -5 -23 -2 -30 3 -8 6 -6 6 5 2 30 21 8 21 -23 0
-33 -16 -49 -23 -23 -4 14 -5 13 -6 -4 -1 -30 16 -38 28 -14 15 27 14 64 -3
87 -13 17 -15 18 -21 2z"/>
<path d="M1115 1295 c0 -46 3 -55 18 -55 15 0 18 7 15 52 -2 37 -7 54 -18 56
-12 2 -15 -9 -15 -53z"/>
<path d="M1170 1336 c0 -10 6 -13 15 -10 9 4 15 0 15 -10 0 -9 -4 -16 -10 -16
-5 0 -10 -7 -10 -15 0 -8 4 -15 9 -15 5 0 12 -8 14 -17 2 -10 4 7 3 37 -1 44
-5 55 -18 58 -11 2 -18 -3 -18 -12z"/>
<path d="M1230 1328 c0 -19 2 -20 10 -8 13 19 13 30 0 30 -5 0 -10 -10 -10
-22z"/>
<path d="M1270 1340 c0 -5 7 -10 16 -10 8 0 12 5 9 10 -3 6 -10 10 -16 10 -5
0 -9 -4 -9 -10z"/>
<path d="M1320 1295 c0 -48 2 -55 20 -55 24 0 27 31 5 54 -8 8 -15 20 -15 26
0 7 7 10 15 6 9 -3 15 0 15 9 0 8 -9 15 -20 15 -18 0 -20 -7 -20 -55z m30 -30
c0 -8 -4 -15 -10 -15 -5 0 -10 7 -10 15 0 8 5 15 10 15 6 0 10 -7 10 -15z"/>
<path d="M1380 1305 c4 -26 3 -48 -4 -55 -7 -7 -3 -10 12 -10 26 0 29 25 10
77 -17 47 -26 41 -18 -12z"/>
<path d="M1400 1339 c0 -5 5 -7 10 -4 6 3 10 8 10 11 0 2 -4 4 -10 4 -5 0 -10
-5 -10 -11z"/>
<path d="M1435 1339 c-4 -6 -4 -13 -1 -16 3 -4 6 -1 6 6 0 7 5 9 12 5 7 -4 8
-3 4 4 -9 15 -13 15 -21 1z"/>
<path d="M1498 1295 c5 -71 17 -71 17 0 0 30 -4 55 -10 55 -6 0 -9 -23 -7 -55z"/>
<path d="M1535 1295 c0 -56 10 -74 18 -32 l4 22 2 -22 c2 -41 16 -24 16 20 -1
46 -10 67 -28 67 -8 0 -12 -19 -12 -55z m30 26 c3 -5 1 -12 -5 -16 -5 -3 -10
1 -10 9 0 18 6 21 15 7z"/>
<path d="M1602 1320 c3 -17 1 -33 -4 -36 -4 -3 -8 -15 -7 -27 0 -21 1 -21 9
-2 7 17 9 17 9 3 1 -10 6 -18 11 -18 7 0 8 13 4 38 -4 20 -7 45 -6 55 0 9 -4
17 -10 17 -6 0 -8 -13 -6 -30z"/>
<path d="M1649 1326 c-14 -30 -3 -99 14 -93 7 2 13 13 15 25 4 30 18 28 26 -3
14 -54 41 -11 34 55 -4 44 -26 51 -34 11 -4 -17 -13 -31 -20 -31 -8 0 -14 -10
-14 -22 0 -16 -3 -19 -11 -11 -14 14 -7 69 9 66 14 -3 16 13 2 22 -5 3 -15 -5
-21 -19z m81 -31 c0 -25 -4 -45 -10 -45 -11 0 -14 73 -3 83 11 12 13 8 13 -38z"/>
<path d="M1760 1296 c0 -31 4 -56 9 -56 5 0 7 9 4 20 -3 11 -1 20 5 20 6 0 12
-10 15 -22 2 -13 3 2 3 32 -1 44 -5 55 -18 58 -15 3 -18 -5 -18 -52z m30 19
c0 -8 -4 -15 -10 -15 -5 0 -10 7 -10 15 0 8 5 15 10 15 6 0 10 -7 10 -15z"/>
<path d="M1820 1296 c0 -48 3 -56 19 -56 16 0 18 7 17 52 -1 42 -5 53 -18 56
-15 3 -18 -5 -18 -52z m26 7 c-10 -10 -19 5 -10 18 6 11 8 11 12 0 2 -7 1 -15
-2 -18z m4 -43 c0 -5 -4 -10 -10 -10 -5 0 -10 5 -10 10 0 6 5 10 10 10 6 0 10
-4 10 -10z"/>
<path d="M1886 1298 c9 -70 18 -78 12 -11 -4 42 -2 53 11 56 10 3 8 5 -7 6
-22 1 -22 -1 -16 -51z"/>
<path d="M1932 1330 c0 -14 2 -19 5 -12 2 6 2 18 0 25 -3 6 -5 1 -5 -13z"/>
<path d="M1262 1300 c-2 -38 9 -70 24 -70 18 0 18 16 0 23 -8 3 -16 21 -19 39
-3 24 -4 26 -5 8z"/>
<path d="M1461 1293 c-1 -44 -18 -50 -30 -11 -5 18 -10 25 -10 16 -1 -24 17
-68 28 -68 12 0 25 63 18 82 -3 7 -6 -1 -6 -19z"/>
<path d="M1231 1284 c0 -11 3 -14 6 -6 3 7 2 16 -1 19 -3 4 -6 -2 -5 -13z"/>
<path d="M950 1250 c0 -5 5 -10 11 -10 5 0 7 5 4 10 -3 6 -8 10 -11 10 -2 0
-4 -4 -4 -10z"/>
<path d="M1015 1250 c-3 -5 -1 -10 4 -10 6 0 11 5 11 10 0 6 -2 10 -4 10 -3 0
-8 -4 -11 -10z"/>
<path d="M1170 1250 c0 -5 5 -10 11 -10 5 0 7 5 4 10 -3 6 -8 10 -11 10 -2 0
-4 -4 -4 -10z"/>
<path d="M1230 1250 c0 -5 5 -10 11 -10 5 0 7 5 4 10 -3 6 -8 10 -11 10 -2 0
-4 -4 -4 -10z"/>
<path d="M1083 1142 c-12 -8 -34 -133 -32 -189 2 -44 3 -38 20 80 l12 87 72 0
c70 0 73 -1 84 -28 16 -39 -3 -208 -27 -237 -25 -30 -34 -35 -64 -35 -24 0
-27 -5 -34 -45 -6 -44 -7 -45 -43 -45 l-37 0 7 58 c4 31 7 73 7 92 l0 35 -8
-40 c-5 -22 -11 -70 -15 -107 -6 -59 -5 -68 9 -68 9 0 16 -7 16 -15 0 -8 1
-15 3 -16 1 0 21 -2 44 -5 l42 -6 6 39 c10 59 13 63 38 63 22 0 53 25 73 60 4
8 14 60 20 115 l13 100 -29 55 -28 55 -69 2 c-38 1 -74 -1 -80 -5z"/>
<path d="M805 1128 c-7 -24 -35 -250 -34 -281 1 -35 23 99 34 206 l7 67 39 0
c46 0 46 5 24 -160 -10 -74 -12 -117 -5 -124 13 -13 16 0 30 124 18 166 16
160 62 160 38 0 39 0 34 -32 -3 -18 -8 -58 -11 -88 -25 -254 -37 -280 -130
-280 -58 0 -67 7 -86 69 -7 26 -7 26 -8 2 -1 -13 13 -48 30 -77 l30 -54 58 0
c54 0 61 3 88 34 26 31 30 47 42 143 7 59 17 141 23 182 9 57 9 76 0 79 -7 2
-12 12 -12 23 0 18 -8 19 -105 19 -76 0 -107 -4 -110 -12z"/>
<path d="M1316 1113 c-14 -74 -18 -135 -8 -129 11 6 45 -51 38 -63 -3 -4 -10
-53 -16 -110 -10 -94 -10 -104 6 -115 9 -7 14 -18 10 -24 -5 -9 9 -12 47 -12
l54 0 18 133 c9 72 20 137 24 142 3 6 15 11 26 10 14 0 22 9 26 30 11 48 10
125 -1 125 -5 0 -10 9 -10 20 0 19 -7 20 -104 20 l-104 0 -6 -27z m192 -2 c4
-2 2 -56 -4 -78 -4 -16 -14 -23 -30 -23 -13 0 -24 -3 -24 -6 0 -4 -7 -52 -15
-108 -8 -55 -16 -117 -17 -136 -3 -34 -5 -35 -46 -38 l-43 -3 5 33 c5 33 19
133 31 216 5 40 4 42 -20 42 -27 0 -31 17 -19 79 l7 32 86 -5 c47 -2 87 -5 89
-5z"/>
<path d="M1573 1058 c-6 -56 -5 -74 5 -76 6 -2 12 -12 12 -23 0 -10 5 -19 11
-19 8 0 9 -14 5 -42 -25 -151 -27 -202 -12 -210 9 -5 16 -16 16 -23 0 -11 13
-15 49 -15 l49 0 11 68 c5 37 13 94 16 127 9 85 13 95 40 95 21 0 24 6 33 68
8 54 7 69 -4 78 -8 6 -14 19 -14 28 0 14 -14 16 -104 16 l-104 0 -9 -72z m197
28 c0 -57 -12 -86 -36 -86 -25 0 -27 -5 -39 -125 -17 -163 -16 -160 -57 -163
-37 -3 -38 -2 -38 30 0 18 7 80 15 138 8 58 15 108 15 113 0 4 -11 7 -25 7
-27 0 -31 17 -19 79 l7 31 88 0 c87 0 89 -1 89 -24z"/>
<path d="M1147 1013 c-11 -10 -8 -83 3 -83 6 0 10 10 10 23 0 12 3 32 6 45 6
21 -5 30 -19 15z"/>
<path d="M1374 553 c-3 -10 -10 -30 -16 -45 -5 -15 -8 -33 -5 -40 4 -8 6 -7 6
5 1 9 5 17 11 17 5 0 7 -7 4 -15 -4 -8 -1 -15 5 -15 7 0 11 21 11 55 0 56 -6
69 -16 38z"/>
<path d="M980 529 c0 -31 19 -37 28 -9 3 7 0 10 -7 6 -6 -4 -11 0 -11 9 0 11
5 15 15 11 8 -3 15 -1 15 4 0 6 -9 10 -20 10 -16 0 -20 -7 -20 -31z"/>
<path d="M1030 516 c0 -14 -2 -31 -5 -39 -4 -8 0 -14 9 -14 19 0 27 64 9 71
-8 4 -13 -3 -13 -18z"/>
<path d="M1487 526 c-9 -10 -17 -12 -17 -6 0 6 -5 10 -11 8 -6 -2 -11 -8 -11
-13 0 -14 -18 -35 -30 -35 -6 0 -8 12 -4 28 5 25 5 25 -6 5 -15 -30 -3 -60 17
-43 8 7 15 9 15 4 0 -5 14 -10 30 -11 22 -2 30 2 30 15 1 16 1 16 14 0 14 -20
28 -14 19 8 -3 8 0 14 6 14 14 0 14 27 0 35 -6 4 -13 -3 -17 -16 l-6 -24 -6
24 c-5 23 -6 23 -23 7z m8 -36 c-4 -12 -9 -19 -12 -17 -3 3 -2 15 2 27 4 12 9
19 12 17 3 -3 2 -15 -2 -27z"/>
<path d="M1563 523 c0 -6 5 -9 10 -6 6 4 7 -4 3 -21 -5 -21 -3 -26 12 -26 13
0 18 9 20 33 2 29 -1 33 -21 33 -13 0 -24 -6 -24 -13z"/>
<path d="M1650 526 c-12 -12 -13 -56 -1 -56 4 0 6 11 3 25 -5 31 23 36 31 5 3
-11 1 -18 -4 -14 -5 3 -9 0 -9 -5 0 -6 9 -11 20 -11 16 0 20 7 20 34 0 30 -3
34 -25 32 -14 0 -30 -5 -35 -10z"/>
<path d="M1073 513 c-3 -7 -3 -17 1 -20 3 -4 6 1 6 10 0 10 5 17 11 17 5 0 9
-8 8 -17 -3 -31 1 -43 12 -43 5 0 7 5 4 10 -3 6 -3 16 2 23 15 24 11 35 -14
35 -13 0 -27 -7 -30 -15z"/>
<path d="M1140 513 c0 -12 -3 -28 -6 -37 -3 -9 -1 -16 4 -16 6 0 13 8 15 18 4
16 5 16 6 0 0 -10 5 -18 10 -18 5 0 7 10 3 22 -3 14 -2 19 6 14 8 -5 12 0 12
13 0 23 -15 28 -26 10 -4 -8 -9 -7 -15 2 -6 10 -9 8 -9 -8z"/>
<path d="M1201 492 l1 -37 8 30 8 30 1 -30 c1 -23 3 -27 11 -15 6 10 10 11 10
3 0 -7 4 -13 9 -13 4 0 6 12 3 26 -2 14 0 29 7 33 6 4 -5 7 -24 8 -34 1 -35 0
-34 -35z"/>
<path d="M1312 523 c1 -5 -3 -18 -10 -30 -8 -14 -9 -24 -2 -28 17 -11 30 5 30
36 0 16 -4 29 -10 29 -5 0 -9 -3 -8 -7z"/>
<path d="M970 470 c0 -5 9 -10 20 -10 11 0 20 5 20 10 0 6 -9 10 -20 10 -11 0
-20 -4 -20 -10z"/>
<path d="M1676 389 c-4 -28 -5 -54 -1 -57 3 -3 5 4 5 15 0 19 16 32 49 39 10
2 11 0 2 -9 -22 -22 -13 -42 22 -42 26 0 34 6 45 30 10 24 15 27 22 15 8 -13
10 -12 10 3 0 28 -35 20 -48 -10 -12 -28 -12 -28 -7 7 6 36 -9 32 -18 -5 -4
-18 -5 -18 -6 3 -1 12 -7 22 -16 22 -8 0 -15 4 -15 10 0 5 -8 14 -19 19 -17 9
-19 5 -25 -40z m29 22 c3 -5 1 -12 -5 -16 -5 -3 -10 1 -10 9 0 18 6 21 15 7z"/>
<path d="M1333 415 c-3 -9 -3 -19 1 -22 3 -4 6 1 6 10 0 8 8 18 18 20 16 4 16
5 -1 6 -10 0 -20 -6 -24 -14z"/>
<path d="M1495 400 c-3 -5 -1 -10 4 -10 6 0 11 5 11 10 0 6 -2 10 -4 10 -3 0
-8 -4 -11 -10z"/>
<path d="M1160 365 c0 -34 1 -35 40 -35 33 0 40 3 40 19 0 11 5 23 10 26 12 8
13 25 1 25 -4 0 -13 -15 -19 -32 -9 -31 -10 -31 -12 -8 -1 14 -2 27 -2 30 0 3
-13 6 -29 7 -27 2 -29 0 -29 -32z m17 -17 c-3 -7 -5 -2 -5 12 0 14 2 19 5 13
2 -7 2 -19 0 -25z"/>
<path d="M1274 388 c-4 -7 -3 -8 4 -4 6 4 5 -5 -3 -21 -15 -29 -13 -38 7 -30
8 2 15 19 16 36 2 31 -10 41 -24 19z"/>
<path d="M1388 375 c2 -14 6 -25 8 -25 2 0 4 11 4 25 0 14 -4 25 -9 25 -4 0
-6 -11 -3 -25z"/>
<path d="M1427 368 c8 -46 13 -48 13 -5 0 21 -4 37 -10 37 -5 0 -7 -14 -3 -32z"/>
<path d="M1459 380 c-1 -11 -2 -24 -3 -30 -1 -5 4 -10 9 -10 6 0 10 14 11 30
1 33 -15 42 -17 10z"/>
<path d="M1520 384 c0 -8 5 -12 10 -9 6 3 10 10 10 16 0 5 -4 9 -10 9 -5 0
-10 -7 -10 -16z"/>
<path d="M1550 365 c0 -24 5 -35 15 -35 10 0 15 11 15 35 0 24 -5 35 -15 35
-10 0 -15 -11 -15 -35z"/>
<path d="M1618 373 c-2 -16 -8 -27 -15 -25 -7 1 -13 -2 -13 -8 0 -21 36 -10
37 12 1 13 7 24 13 26 15 5 12 22 -4 22 -9 0 -16 -12 -18 -27z"/>
<path d="M1850 388 c0 -7 -3 -24 -5 -38 -5 -22 -4 -22 4 -5 5 11 10 14 10 8 1
-7 5 -13 11 -13 6 0 6 9 0 24 -5 13 -6 27 -3 30 4 3 1 6 -5 6 -7 0 -12 -6 -12
-12z"/>
<path d="M1320 363 c0 -28 17 -38 35 -23 11 9 15 9 15 1 0 -6 4 -11 9 -11 4 0
6 12 3 27 l-5 27 -15 -23 -15 -23 -13 24 c-13 23 -13 23 -14 1z"/>
<path d="M1491 358 c-1 -19 4 -28 14 -28 8 0 15 8 15 18 0 14 -2 14 -9 3 -7
-11 -10 -9 -14 10 -4 23 -4 22 -6 -3z"/>
<path d="M1412 350 c0 -14 2 -19 5 -12 2 6 2 18 0 25 -3 6 -5 1 -5 -13z"/>
</g>
</svg>
